<svg width="988" height="177" viewBox="0 0 988 177" fill="none" xmlns="http://www.w3.org/2000/svg">
<g clip-path="url(#clip0_263_2)">
<path d="M357.97 82.0701C349.74 82.0701 343.41 84.5501 338.96 89.5001C334.51 94.4501 332.29 101.63 332.29 111.03V176.99H377.36V103.73C377.36 96.4301 375.76 91.0001 372.57 87.4201C369.38 83.8601 364.52 82.0701 357.97 82.0701Z" fill="url(#paint0_linear_263_2)"/>
<path d="M32.68 0C14.63 0 0 14.63 0 32.68V176.98H52.98C43.99 173.2 36.16 167.54 29.5 160C16.16 144.89 9.48 124.46 9.48 98.69C9.48 72.34 16.15 51.44 29.5 36C42.84 20.56 60.85 12.83 83.51 12.83C102.56 12.83 118.38 18.02 130.97 28.38C143.56 38.74 150.95 52.74 153.13 70.36H119.39C118.3 61.72 114.56 54.83 108.19 49.71C101.81 44.59 93.67 42.03 83.76 42.03C71.25 42.03 61.48 47 54.43 56.95C47.38 66.9 43.85 80.72 43.85 98.43C43.85 115.64 47.38 129.11 54.43 138.85C61.48 148.58 71.26 153.45 83.76 153.45C93.66 153.45 101.81 150.62 108.19 144.96C114.57 139.29 118.3 131.59 119.39 121.85H153.13C151.12 140.48 143.84 155.28 131.29 166.23C126.11 170.75 120.34 174.32 114.01 176.98H177.18V17.23H192.79H208.53V176.98H239.76V59.03H255.49H271.23V176.98H300.94V59.03H315.8H330.78V76.78C332.04 74.6 333.38 72.59 334.8 70.74C342.61 60.84 353.86 55.89 368.54 55.89C381.13 55.89 390.99 59.62 398.13 67.09C405.26 74.56 408.83 84.89 408.83 98.06V176.98H439.04V59.03H454.77H470.51V176.98H525.17C518.5 174.31 512.78 170.39 508.03 165.22C498.21 154.53 493.3 139.23 493.3 119.34C493.3 99.95 498.4 84.52 508.6 73.07C518.8 61.61 532.54 55.89 549.83 55.89C565.19 55.89 577.76 60.13 587.54 68.61C597.32 77.09 602.54 88.21 603.21 101.97H571.1C570.85 96.1 568.77 91.33 564.87 87.68C560.97 84.02 555.95 82.2 549.83 82.2C541.94 82.2 535.94 85.37 531.83 91.71C527.71 98.04 525.66 107.25 525.66 119.34C525.66 131.17 527.72 140.17 531.83 146.34C535.94 152.51 541.94 155.59 549.83 155.59C555.54 155.59 560.36 153.62 564.31 149.67C568.25 145.72 570.52 140.52 571.11 134.06H603.22C601.54 148.92 596 160.5 586.6 168.81C582.69 172.27 578.25 174.96 573.35 176.98H615.74V0H32.68ZM271.47 45.19H239.49V16.1H271.47V45.19ZM470.77 45.19H438.79V16.1H470.77V45.19Z" fill="url(#paint1_linear_263_2)"/>
<path d="M634.74 176.99V15.96H651.48H702.09C720.39 15.96 734.32 20.26 743.89 28.87C753.46 37.47 758.24 49.96 758.24 66.32C758.24 83.69 753.46 96.89 743.89 105.92C734.32 114.94 720.39 119.45 702.09 119.45C689.08 119.37 677.83 119.45 668.35 119.7V176.99H651.61H634.74ZM668.36 91.76H696.44C705.84 91.76 712.89 89.69 717.59 85.53C722.29 81.37 724.64 75.1 724.64 66.7C724.64 59.07 722.29 53.32 717.59 49.45C712.89 45.59 705.84 43.66 696.44 43.66H668.36V91.76Z" fill="#211847"/>
<path d="M777.24 176.99V57.7599H792.1H807.08V79.1599C808.26 76.8099 809.52 74.5499 810.86 72.3599C818.25 60.5199 827.77 54.6099 839.44 54.6099L846.62 54.7399V86.8399C843.85 86.5899 840.7 86.4599 837.18 86.4599C827.61 86.4599 820.47 88.8399 815.78 93.5799C811.07 98.3199 808.73 105.47 808.73 115.04V176.99H792.99H777.24Z" fill="#211847"/>
<path d="M926.55 176.99C907.92 176.99 893.1 171.41 882.11 160.25C871.11 149.09 865.62 134.02 865.62 115.05C865.62 95.6601 871.11 80.2301 882.11 68.7801C893.1 57.3201 907.92 51.6001 926.55 51.6001C945.26 51.6001 960.11 57.3201 971.05 68.7801C982 80.2301 987.48 95.6601 987.48 115.05C987.48 134.02 982 149.09 971.05 160.25C960.1 171.41 945.25 176.99 926.55 176.99ZM926.55 150.8C935.87 150.8 942.99 147.71 947.9 141.55C952.81 135.38 955.26 126.42 955.26 114.67C955.26 102.67 952.81 93.5401 947.9 87.2901C942.99 81.0401 935.87 77.9101 926.55 77.9101C917.15 77.9101 910.04 81.0301 905.21 87.2901C900.38 93.5401 897.97 102.68 897.97 114.67C897.97 126.42 900.39 135.38 905.21 141.55C910.03 147.72 917.15 150.8 926.55 150.8Z" fill="#211847"/>
</g>
<defs>
<linearGradient id="paint0_linear_263_2" x1="332.285" y1="129.531" x2="377.358" y2="129.531" gradientUnits="userSpaceOnUse">
<stop stop-color="#6555C3"/>
<stop offset="1" stop-color="#00C8CB"/>
</linearGradient>
<linearGradient id="paint1_linear_263_2" x1="0.0033" y1="88.4955" x2="615.742" y2="88.4955" gradientUnits="userSpaceOnUse">
<stop stop-color="#6555C3"/>
<stop offset="1" stop-color="#00C8CB"/>
</linearGradient>
<clipPath id="clip0_263_2">
<rect width="987.48" height="176.99" fill="white"/>
</clipPath>
</defs>
</svg>
